<mxfile host="app.diagrams.net" modified="2023-05-06T22:49:01.093Z" agent="Mozilla/5.0 (Macintosh; Intel Mac OS X 10_15_7) AppleWebKit/537.36 (KHTML, like Gecko) Chrome/112.0.0.0 Safari/537.36" etag="QVYSR7VCT36rjRYg0Los" version="21.2.9" type="google">
  <diagram name="Page-1" id="2cc2dc42-3aac-f2a9-1cec-7a8b7cbee084">
    <mxGraphModel grid="1" page="1" gridSize="10" guides="1" tooltips="1" connect="1" arrows="1" fold="1" pageScale="1" pageWidth="1100" pageHeight="850" background="none" math="0" shadow="0">
      <root>
        <mxCell id="0" />
        <mxCell id="1" parent="0" />
        <mxCell id="7026571954dc6520-1" value="" style="strokeWidth=1;shadow=0;dashed=0;align=center;html=1;shape=mxgraph.mockup.containers.browserWindow;rSize=0;strokeColor=#666666;mainText=,;recursiveResize=0;rounded=0;labelBackgroundColor=none;fontFamily=Verdana;fontSize=12" vertex="1" parent="1">
          <mxGeometry x="20" y="-30" width="1050" height="860" as="geometry" />
        </mxCell>
        <mxCell id="7026571954dc6520-2" value="Landing Page" style="strokeWidth=1;shadow=0;dashed=0;align=center;html=1;shape=mxgraph.mockup.containers.anchor;fontSize=17;fontColor=#666666;align=left;" vertex="1" parent="7026571954dc6520-1">
          <mxGeometry x="60" y="12" width="110" height="26" as="geometry" />
        </mxCell>
        <mxCell id="7026571954dc6520-3" value="https://www.pruplekittysquad.com" style="strokeWidth=1;shadow=0;dashed=0;align=center;html=1;shape=mxgraph.mockup.containers.anchor;rSize=0;fontSize=17;fontColor=#666666;align=left;" vertex="1" parent="7026571954dc6520-1">
          <mxGeometry x="130" y="60" width="250" height="26" as="geometry" />
        </mxCell>
        <mxCell id="7026571954dc6520-4" value="Word Game Name" style="text;html=1;points=[];align=center;verticalAlign=top;spacingTop=-4;fontSize=30;fontFamily=Verdana" vertex="1" parent="7026571954dc6520-1">
          <mxGeometry x="30" y="260" width="340" height="50" as="geometry" />
        </mxCell>
        <mxCell id="7026571954dc6520-6" value="Name:" style="text;html=1;points=[];align=left;verticalAlign=top;spacingTop=-4;fontSize=15;fontFamily=Verdana" vertex="1" parent="7026571954dc6520-1">
          <mxGeometry x="531.75" y="185" width="170" height="30" as="geometry" />
        </mxCell>
        <mxCell id="7026571954dc6520-8" value="Password:" style="text;html=1;points=[];align=left;verticalAlign=top;spacingTop=-4;fontSize=15;fontFamily=Verdana" vertex="1" parent="7026571954dc6520-1">
          <mxGeometry x="531.75" y="235" width="170" height="30" as="geometry" />
        </mxCell>
        <mxCell id="7026571954dc6520-10" value="Email:" style="text;html=1;points=[];align=left;verticalAlign=top;spacingTop=-4;fontSize=15;fontFamily=Verdana" vertex="1" parent="7026571954dc6520-1">
          <mxGeometry x="531.75" y="210" width="170" height="30" as="geometry" />
        </mxCell>
        <mxCell id="7026571954dc6520-15" value="" style="verticalLabelPosition=bottom;shadow=0;dashed=0;align=center;html=1;verticalAlign=top;strokeWidth=1;shape=mxgraph.mockup.markup.line;strokeColor=#999999;rounded=0;labelBackgroundColor=none;fillColor=#ffffff;fontFamily=Verdana;fontSize=12;fontColor=#000000;" vertex="1" parent="7026571954dc6520-1">
          <mxGeometry y="310" width="1050" height="20" as="geometry" />
        </mxCell>
        <mxCell id="7026571954dc6520-16" value="&lt;b&gt;&lt;u&gt;Choose the Game Type:&lt;/u&gt;&lt;/b&gt;" style="text;html=1;points=[];align=left;verticalAlign=top;spacingTop=-4;fontSize=15;fontFamily=Verdana" vertex="1" parent="7026571954dc6520-1">
          <mxGeometry x="10" y="660" width="220" height="30" as="geometry" />
        </mxCell>
        <mxCell id="7026571954dc6520-18" value="Level-based" style="strokeWidth=1;shadow=0;dashed=0;align=center;html=1;shape=mxgraph.mockup.buttons.button;strokeColor=#666666;mainText=;buttonStyle=round;fontSize=17;fontStyle=0;fillColor=none;whiteSpace=wrap;rounded=0;labelBackgroundColor=none;" vertex="1" parent="7026571954dc6520-1">
          <mxGeometry x="255" y="660" width="190" height="30" as="geometry" />
        </mxCell>
        <mxCell id="7026571954dc6520-21" value="" style="verticalLabelPosition=bottom;shadow=0;dashed=0;align=center;html=1;verticalAlign=top;strokeWidth=1;shape=mxgraph.mockup.markup.line;strokeColor=#999999;rounded=0;labelBackgroundColor=none;fillColor=#ffffff;fontFamily=Verdana;fontSize=12;fontColor=#000000;" vertex="1" parent="7026571954dc6520-1">
          <mxGeometry x="-5" y="710" width="1055" height="20" as="geometry" />
        </mxCell>
        <mxCell id="7026571954dc6520-22" value="" style="verticalLabelPosition=bottom;shadow=0;dashed=0;align=center;html=1;verticalAlign=top;strokeWidth=1;shape=mxgraph.mockup.graphics.simpleIcon;strokeColor=#999999;fillColor=#ffffff;rounded=0;labelBackgroundColor=none;fontFamily=Verdana;fontSize=12;fontColor=#000000;" vertex="1" parent="7026571954dc6520-1">
          <mxGeometry x="35" y="750" width="105" height="80" as="geometry" />
        </mxCell>
        <mxCell id="mGeGcOTa5CVoO1vTjAL9-2" value="" style="strokeWidth=1;html=1;shadow=0;dashed=0;shape=mxgraph.android.textfield;align=center;strokeColor=#999999;pointerEvents=1" vertex="1" parent="7026571954dc6520-1">
          <mxGeometry x="630" y="175" width="174" height="30" as="geometry" />
        </mxCell>
        <mxCell id="mGeGcOTa5CVoO1vTjAL9-3" value="" style="strokeWidth=1;html=1;shadow=0;dashed=0;shape=mxgraph.android.textfield;align=center;strokeColor=#999999;pointerEvents=1" vertex="1" parent="7026571954dc6520-1">
          <mxGeometry x="630" y="205" width="174" height="30" as="geometry" />
        </mxCell>
        <mxCell id="mGeGcOTa5CVoO1vTjAL9-4" value="&lt;u&gt;Login:&lt;/u&gt;" style="text;html=1;points=[];align=left;verticalAlign=top;spacingTop=-4;fontSize=30;fontFamily=Verdana" vertex="1" parent="7026571954dc6520-1">
          <mxGeometry x="580" y="125" width="230" height="40" as="geometry" />
        </mxCell>
        <mxCell id="mGeGcOTa5CVoO1vTjAL9-5" value="" style="strokeWidth=1;html=1;shadow=0;dashed=0;shape=mxgraph.android.textfield;align=center;strokeColor=#999999;pointerEvents=1" vertex="1" parent="7026571954dc6520-1">
          <mxGeometry x="630" y="235" width="174" height="30" as="geometry" />
        </mxCell>
        <mxCell id="mGeGcOTa5CVoO1vTjAL9-6" value="" style="verticalLabelPosition=bottom;shadow=0;dashed=0;align=center;html=1;verticalAlign=top;strokeWidth=1;shape=mxgraph.mockup.graphics.simpleIcon;strokeColor=#999999;fillColor=#ffffff;rounded=0;labelBackgroundColor=none;fontFamily=Verdana;fontSize=12;fontColor=#000000;" vertex="1" parent="7026571954dc6520-1">
          <mxGeometry x="100" y="130" width="200" height="130" as="geometry" />
        </mxCell>
        <mxCell id="mGeGcOTa5CVoO1vTjAL9-7" value="Game Logo" style="text;html=1;points=[];align=center;verticalAlign=top;spacingTop=-4;fontSize=15;fontFamily=Verdana" vertex="1" parent="7026571954dc6520-1">
          <mxGeometry x="115" y="130" width="170" height="30" as="geometry" />
        </mxCell>
        <mxCell id="mGeGcOTa5CVoO1vTjAL9-8" value="" style="verticalLabelPosition=bottom;shadow=0;dashed=0;align=center;html=1;verticalAlign=top;strokeWidth=1;shape=mxgraph.mockup.markup.line;strokeColor=#999999;rounded=0;labelBackgroundColor=none;fillColor=#ffffff;fontFamily=Verdana;fontSize=12;fontColor=#000000;rotation=90;" vertex="1" parent="7026571954dc6520-1">
          <mxGeometry x="556.75" y="467.5" width="315" height="20" as="geometry" />
        </mxCell>
        <mxCell id="mGeGcOTa5CVoO1vTjAL9-9" value="&lt;u&gt;&lt;b&gt;&lt;font style=&quot;font-size: 21px;&quot;&gt;User History&lt;/font&gt;&lt;/b&gt;&lt;/u&gt;" style="text;html=1;points=[];align=center;verticalAlign=top;spacingTop=-4;fontSize=15;fontFamily=Verdana" vertex="1" parent="7026571954dc6520-1">
          <mxGeometry x="776" y="340" width="170" height="30" as="geometry" />
        </mxCell>
        <mxCell id="mGeGcOTa5CVoO1vTjAL9-10" value="&lt;div style=&quot;font-size: 16px;&quot;&gt;&lt;font style=&quot;font-size: 16px;&quot;&gt;* This window will only appear when the user has logged in.&lt;/font&gt;&lt;/div&gt;&lt;ul style=&quot;font-size: 16px;&quot;&gt;&lt;li style=&quot;&quot;&gt;&lt;font style=&quot;font-size: 16px;&quot;&gt;Last Login at XX:XX time&lt;/font&gt;&lt;/li&gt;&lt;li style=&quot;&quot;&gt;&lt;font style=&quot;font-size: 16px;&quot;&gt;High Score: XX&lt;/font&gt;&lt;/li&gt;&lt;li style=&quot;&quot;&gt;&lt;font style=&quot;font-size: 16px;&quot;&gt;Number of Sessions: X&lt;/font&gt;&lt;/li&gt;&lt;li style=&quot;&quot;&gt;&lt;font style=&quot;font-size: 16px;&quot;&gt;Average Login per day: X&lt;/font&gt;&lt;/li&gt;&lt;li style=&quot;&quot;&gt;Total Rewards earned: X&lt;/li&gt;&lt;li style=&quot;&quot;&gt;User&#39;s recent games: ...&lt;br style=&quot;border-color: var(--border-color);&quot;&gt;&lt;/li&gt;&lt;li style=&quot;&quot;&gt;&lt;font style=&quot;font-size: 16px;&quot;&gt;...&lt;/font&gt;&lt;/li&gt;&lt;li style=&quot;&quot;&gt;&lt;font style=&quot;font-size: 16px;&quot;&gt;...&lt;/font&gt;&lt;/li&gt;&lt;li style=&quot;&quot;&gt;&lt;font style=&quot;font-size: 16px;&quot;&gt;...&lt;/font&gt;&lt;/li&gt;&lt;li style=&quot;&quot;&gt;&lt;font style=&quot;font-size: 16px;&quot;&gt;...&lt;/font&gt;&lt;/li&gt;&lt;/ul&gt;" style="text;spacingTop=-5;whiteSpace=wrap;html=1;align=left;fontSize=12;fontFamily=Helvetica;fillColor=none;strokeColor=none;rounded=0;shadow=1;labelBackgroundColor=none;" vertex="1" parent="7026571954dc6520-1">
          <mxGeometry x="720" y="365" width="310" height="255" as="geometry" />
        </mxCell>
        <mxCell id="mGeGcOTa5CVoO1vTjAL9-11" value="User Puzzle Design" style="strokeWidth=1;shadow=0;dashed=0;align=center;html=1;shape=mxgraph.mockup.buttons.button;strokeColor=#666666;mainText=;buttonStyle=round;fontSize=17;fontStyle=0;fillColor=none;whiteSpace=wrap;rounded=0;labelBackgroundColor=none;" vertex="1" parent="7026571954dc6520-1">
          <mxGeometry x="600" y="660" width="190" height="30" as="geometry" />
        </mxCell>
        <mxCell id="mGeGcOTa5CVoO1vTjAL9-12" value="Roaming Kitty Logo with link" style="text;html=1;points=[];align=center;verticalAlign=top;spacingTop=-4;fontSize=15;fontFamily=Verdana" vertex="1" parent="7026571954dc6520-1">
          <mxGeometry x="140" y="790" width="170" height="30" as="geometry" />
        </mxCell>
        <mxCell id="mGeGcOTa5CVoO1vTjAL9-14" value="Privacy Policy" style="text;html=1;points=[];align=center;verticalAlign=top;spacingTop=-4;fontSize=15;fontFamily=Verdana" vertex="1" parent="7026571954dc6520-1">
          <mxGeometry x="420" y="790" width="170" height="30" as="geometry" />
        </mxCell>
        <mxCell id="mGeGcOTa5CVoO1vTjAL9-13" value="Terms of Conditions" style="text;html=1;points=[];align=center;verticalAlign=top;spacingTop=-4;fontSize=15;fontFamily=Verdana" vertex="1" parent="7026571954dc6520-1">
          <mxGeometry x="640" y="790" width="170" height="30" as="geometry" />
        </mxCell>
        <mxCell id="Z_0ai8Y_tWjGVad-D_t0-29" value="Continue as Guest?" style="strokeWidth=1;shadow=0;dashed=0;align=center;html=1;shape=mxgraph.mockup.buttons.button;strokeColor=#666666;mainText=;buttonStyle=round;fontSize=17;fontStyle=0;fillColor=none;whiteSpace=wrap;rounded=0;labelBackgroundColor=none;" vertex="1" parent="7026571954dc6520-1">
          <mxGeometry x="840" y="215" width="190" height="30" as="geometry" />
        </mxCell>
        <mxCell id="Z_0ai8Y_tWjGVad-D_t0-30" value="&lt;b&gt;OR&lt;/b&gt;" style="text;html=1;points=[];align=left;verticalAlign=top;spacingTop=-4;fontSize=15;fontFamily=Verdana" vertex="1" parent="7026571954dc6520-1">
          <mxGeometry x="920" y="175" width="30" height="30" as="geometry" />
        </mxCell>
        <mxCell id="Z_0ai8Y_tWjGVad-D_t0-62" value="Login" style="strokeWidth=1;shadow=0;dashed=0;align=center;html=1;shape=mxgraph.mockup.buttons.button;strokeColor=#666666;mainText=;buttonStyle=round;fontSize=17;fontStyle=0;fillColor=none;whiteSpace=wrap;rounded=0;labelBackgroundColor=none;" vertex="1" parent="7026571954dc6520-1">
          <mxGeometry x="840" y="130" width="190" height="30" as="geometry" />
        </mxCell>
        <mxCell id="53auGICcM6ZBrloDtgbD-1" value="Today&#39;s Rewards Game" style="labelPosition=center;verticalLabelPosition=middle;align=center;html=1;shape=mxgraph.basic.shaded_button;dx=10;fillColor=#E6E6E6;strokeColor=none;whiteSpace=wrap;" vertex="1" parent="7026571954dc6520-1">
          <mxGeometry x="475" y="645" width="100" height="60" as="geometry" />
        </mxCell>
        <mxCell id="53auGICcM6ZBrloDtgbD-2" value="" style="verticalLabelPosition=bottom;shadow=0;dashed=0;align=center;html=1;verticalAlign=top;strokeWidth=1;shape=mxgraph.mockup.markup.line;strokeColor=#999999;rounded=0;labelBackgroundColor=none;fillColor=#ffffff;fontFamily=Verdana;fontSize=12;fontColor=#000000;rotation=0;" vertex="1" parent="7026571954dc6520-1">
          <mxGeometry x="715.75" y="625" width="334.25" height="20" as="geometry" />
        </mxCell>
        <mxCell id="53auGICcM6ZBrloDtgbD-3" value="" style="verticalLabelPosition=bottom;shadow=0;dashed=0;align=center;html=1;verticalAlign=top;strokeWidth=1;shape=mxgraph.mockup.markup.line;strokeColor=#999999;rounded=0;labelBackgroundColor=none;fillColor=#ffffff;fontFamily=Verdana;fontSize=12;fontColor=#000000;rotation=90;" vertex="1" parent="7026571954dc6520-1">
          <mxGeometry x="220" y="467.5" width="315" height="20" as="geometry" />
        </mxCell>
        <mxCell id="53auGICcM6ZBrloDtgbD-4" value="" style="verticalLabelPosition=bottom;shadow=0;dashed=0;align=center;html=1;verticalAlign=top;strokeWidth=1;shape=mxgraph.mockup.markup.line;strokeColor=#999999;rounded=0;labelBackgroundColor=none;fillColor=#ffffff;fontFamily=Verdana;fontSize=12;fontColor=#000000;rotation=0;" vertex="1" parent="7026571954dc6520-1">
          <mxGeometry y="625" width="370" height="20" as="geometry" />
        </mxCell>
        <mxCell id="53auGICcM6ZBrloDtgbD-5" value="" style="verticalLabelPosition=bottom;shadow=0;dashed=0;align=center;html=1;verticalAlign=top;strokeWidth=1;shape=mxgraph.mockup.markup.line;strokeColor=#999999;rounded=0;labelBackgroundColor=none;fillColor=#ffffff;fontFamily=Verdana;fontSize=12;fontColor=#000000;rotation=0;" vertex="1" parent="7026571954dc6520-1">
          <mxGeometry y="350" width="380" height="20" as="geometry" />
        </mxCell>
        <mxCell id="53auGICcM6ZBrloDtgbD-6" value="&lt;b&gt;&lt;u&gt;Leaderboard&lt;/u&gt;&lt;/b&gt;" style="text;html=1;points=[];align=center;verticalAlign=top;spacingTop=-4;fontSize=15;fontFamily=Verdana" vertex="1" parent="7026571954dc6520-1">
          <mxGeometry x="35" y="322.5" width="170" height="30" as="geometry" />
        </mxCell>
        <mxCell id="53auGICcM6ZBrloDtgbD-7" value="Refresh" style="strokeWidth=1;shadow=0;dashed=0;align=center;html=1;shape=mxgraph.mockup.buttons.button;strokeColor=#666666;mainText=;buttonStyle=round;fontSize=17;fontStyle=0;fillColor=none;whiteSpace=wrap;rounded=0;labelBackgroundColor=none;" vertex="1" parent="7026571954dc6520-1">
          <mxGeometry x="230" y="325" width="110" height="25" as="geometry" />
        </mxCell>
        <mxCell id="53auGICcM6ZBrloDtgbD-8" value="Today&#39;s Date: MM/DD/YY&lt;br&gt;&lt;br&gt;&lt;div style=&quot;&quot;&gt;&lt;ol&gt;&lt;li&gt;User A&amp;nbsp; &amp;nbsp; &amp;nbsp; &amp;nbsp; &amp;nbsp; &amp;nbsp; &amp;nbsp; XX:XX&lt;/li&gt;&lt;li&gt;User B&amp;nbsp; &amp;nbsp; &amp;nbsp; &amp;nbsp; &amp;nbsp; &amp;nbsp; &amp;nbsp; XX:XX&lt;/li&gt;&lt;li&gt;User C&amp;nbsp; &amp;nbsp; &amp;nbsp; &amp;nbsp; &amp;nbsp; &amp;nbsp; &amp;nbsp; XX:XX&lt;/li&gt;&lt;li&gt;Anonymous&amp;nbsp; &amp;nbsp; &amp;nbsp; &amp;nbsp;XX:XX&lt;/li&gt;&lt;li&gt;User D&amp;nbsp; &amp;nbsp; &amp;nbsp; &amp;nbsp; &amp;nbsp; &amp;nbsp; &amp;nbsp; XX:XX&lt;/li&gt;&lt;li&gt;User E&amp;nbsp; &amp;nbsp; &amp;nbsp; &amp;nbsp; &amp;nbsp; &amp;nbsp; &amp;nbsp; XX:XX&lt;/li&gt;&lt;li&gt;User F&amp;nbsp; &amp;nbsp; &amp;nbsp; &amp;nbsp; &amp;nbsp; &amp;nbsp; &amp;nbsp; XX:XX&lt;/li&gt;&lt;li&gt;Anonymous&amp;nbsp; &amp;nbsp; &amp;nbsp; &amp;nbsp;XX:XX&amp;nbsp;&lt;/li&gt;&lt;li&gt;Anonymous&amp;nbsp; &amp;nbsp; &amp;nbsp; &amp;nbsp;XX:XX&lt;/li&gt;&lt;li&gt;Anonymous&amp;nbsp; &amp;nbsp; &amp;nbsp; &amp;nbsp;XX:XX&amp;nbsp;&lt;/li&gt;&lt;li&gt;User G&amp;nbsp; &amp;nbsp; &amp;nbsp; &amp;nbsp; &amp;nbsp; &amp;nbsp; &amp;nbsp; XX:XX&lt;/li&gt;&lt;li&gt;Anonymous&amp;nbsp; &amp;nbsp; &amp;nbsp; &amp;nbsp;XX:XX&lt;/li&gt;&lt;/ol&gt;&lt;/div&gt;" style="text;html=1;points=[];align=left;verticalAlign=top;spacingTop=-4;fontSize=15;fontFamily=Verdana" vertex="1" parent="7026571954dc6520-1">
          <mxGeometry x="60" y="365" width="240" height="270" as="geometry" />
        </mxCell>
        <mxCell id="53auGICcM6ZBrloDtgbD-9" value="" style="verticalLabelPosition=bottom;shadow=0;dashed=0;align=center;html=1;verticalAlign=top;strokeWidth=1;shape=mxgraph.mockup.navigation.scrollBar;strokeColor=#999999;barPos=34.396;fillColor2=#99ddff;strokeColor2=none;direction=north;" vertex="1" parent="7026571954dc6520-1">
          <mxGeometry x="359.25" y="359.68" width="10.75" height="280.32" as="geometry" />
        </mxCell>
        <mxCell id="5j2xh_ovKFnSH8uevvw1-1" value="" style="strokeWidth=1;shadow=0;dashed=0;align=center;html=1;shape=mxgraph.mockup.containers.browserWindow;rSize=0;strokeColor=#666666;mainText=,;recursiveResize=0;rounded=0;labelBackgroundColor=none;fontFamily=Verdana;fontSize=12" vertex="1" parent="1">
          <mxGeometry x="1110" y="10" width="1070" height="840" as="geometry" />
        </mxCell>
        <mxCell id="5j2xh_ovKFnSH8uevvw1-2" value="Level-Based Game" style="strokeWidth=1;shadow=0;dashed=0;align=center;html=1;shape=mxgraph.mockup.containers.anchor;fontSize=17;fontColor=#666666;align=left;" vertex="1" parent="5j2xh_ovKFnSH8uevvw1-1">
          <mxGeometry x="60" y="12" width="110" height="26" as="geometry" />
        </mxCell>
        <mxCell id="5j2xh_ovKFnSH8uevvw1-3" value="https://www.pruplekittysquad.com" style="strokeWidth=1;shadow=0;dashed=0;align=center;html=1;shape=mxgraph.mockup.containers.anchor;rSize=0;fontSize=17;fontColor=#666666;align=left;" vertex="1" parent="5j2xh_ovKFnSH8uevvw1-1">
          <mxGeometry x="130" y="60" width="250" height="26" as="geometry" />
        </mxCell>
        <mxCell id="5j2xh_ovKFnSH8uevvw1-12" value="" style="verticalLabelPosition=bottom;shadow=0;dashed=0;align=center;html=1;verticalAlign=top;strokeWidth=1;shape=mxgraph.mockup.markup.line;strokeColor=#999999;rounded=0;labelBackgroundColor=none;fillColor=#ffffff;fontFamily=Verdana;fontSize=12;fontColor=#000000;" vertex="1" parent="5j2xh_ovKFnSH8uevvw1-1">
          <mxGeometry y="600" width="1070" height="20" as="geometry" />
        </mxCell>
        <mxCell id="Z_0ai8Y_tWjGVad-D_t0-1" value="&lt;b&gt;&lt;u&gt;Leaderboard&lt;/u&gt;&lt;/b&gt;" style="text;html=1;points=[];align=center;verticalAlign=top;spacingTop=-4;fontSize=15;fontFamily=Verdana" vertex="1" parent="5j2xh_ovKFnSH8uevvw1-1">
          <mxGeometry x="455" y="615" width="170" height="30" as="geometry" />
        </mxCell>
        <mxCell id="Z_0ai8Y_tWjGVad-D_t0-2" value="" style="verticalLabelPosition=bottom;shadow=0;dashed=0;align=center;html=1;verticalAlign=top;strokeWidth=1;shape=mxgraph.mockup.markup.line;strokeColor=#999999;rounded=0;labelBackgroundColor=none;fillColor=#ffffff;fontFamily=Verdana;fontSize=12;fontColor=#000000;" vertex="1" parent="5j2xh_ovKFnSH8uevvw1-1">
          <mxGeometry y="640" width="1070" height="20" as="geometry" />
        </mxCell>
        <mxCell id="Z_0ai8Y_tWjGVad-D_t0-5" value="" style="verticalLabelPosition=bottom;shadow=0;dashed=0;align=center;html=1;verticalAlign=top;strokeWidth=1;shape=mxgraph.mockup.markup.line;strokeColor=#999999;rounded=0;labelBackgroundColor=none;fillColor=#ffffff;fontFamily=Verdana;fontSize=12;fontColor=#000000;rotation=90;" vertex="1" parent="5j2xh_ovKFnSH8uevvw1-1">
          <mxGeometry x="240" y="737.5" width="195" height="20" as="geometry" />
        </mxCell>
        <mxCell id="Z_0ai8Y_tWjGVad-D_t0-4" value="" style="verticalLabelPosition=bottom;shadow=0;dashed=0;align=center;html=1;verticalAlign=top;strokeWidth=1;shape=mxgraph.mockup.markup.line;strokeColor=#999999;rounded=0;labelBackgroundColor=none;fillColor=#ffffff;fontFamily=Verdana;fontSize=12;fontColor=#000000;rotation=90;" vertex="1" parent="5j2xh_ovKFnSH8uevvw1-1">
          <mxGeometry x="610" y="737.5" width="194.06" height="20" as="geometry" />
        </mxCell>
        <mxCell id="Z_0ai8Y_tWjGVad-D_t0-7" value="Refresh" style="strokeWidth=1;shadow=0;dashed=0;align=center;html=1;shape=mxgraph.mockup.buttons.button;strokeColor=#666666;mainText=;buttonStyle=round;fontSize=17;fontStyle=0;fillColor=none;whiteSpace=wrap;rounded=0;labelBackgroundColor=none;" vertex="1" parent="5j2xh_ovKFnSH8uevvw1-1">
          <mxGeometry x="910" y="615" width="110" height="25" as="geometry" />
        </mxCell>
        <mxCell id="Z_0ai8Y_tWjGVad-D_t0-14" value="" style="verticalLabelPosition=bottom;shadow=0;dashed=0;align=center;html=1;verticalAlign=top;strokeWidth=1;shape=mxgraph.mockup.navigation.scrollBar;strokeColor=#999999;barPos=78.75;fillColor2=#99ddff;strokeColor2=none;direction=north;" vertex="1" parent="5j2xh_ovKFnSH8uevvw1-1">
          <mxGeometry x="310" y="650" width="20" height="180" as="geometry" />
        </mxCell>
        <mxCell id="Z_0ai8Y_tWjGVad-D_t0-16" value="" style="verticalLabelPosition=bottom;shadow=0;dashed=0;align=center;html=1;verticalAlign=top;strokeWidth=1;shape=mxgraph.mockup.navigation.scrollBar;strokeColor=#999999;barPos=52.083;fillColor2=#99ddff;strokeColor2=none;direction=north;" vertex="1" parent="5j2xh_ovKFnSH8uevvw1-1">
          <mxGeometry x="681" y="650" width="20" height="180" as="geometry" />
        </mxCell>
        <mxCell id="Z_0ai8Y_tWjGVad-D_t0-15" value="" style="verticalLabelPosition=bottom;shadow=0;dashed=0;align=center;html=1;verticalAlign=top;strokeWidth=1;shape=mxgraph.mockup.navigation.scrollBar;strokeColor=#999999;barPos=30.417;fillColor2=#99ddff;strokeColor2=none;direction=north;" vertex="1" parent="5j2xh_ovKFnSH8uevvw1-1">
          <mxGeometry x="1050" y="650" width="20" height="180" as="geometry" />
        </mxCell>
        <mxCell id="Z_0ai8Y_tWjGVad-D_t0-18" value="User&#39;s Name" style="text;html=1;points=[];align=left;verticalAlign=top;spacingTop=-4;fontSize=15;fontFamily=Verdana" vertex="1" parent="5j2xh_ovKFnSH8uevvw1-1">
          <mxGeometry x="910" y="195" width="120" height="30" as="geometry" />
        </mxCell>
        <mxCell id="Z_0ai8Y_tWjGVad-D_t0-22" value="&lt;u&gt;Level: Easy&lt;/u&gt;" style="text;html=1;points=[];align=center;verticalAlign=top;spacingTop=-4;fontSize=15;fontFamily=Verdana" vertex="1" parent="5j2xh_ovKFnSH8uevvw1-1">
          <mxGeometry x="60" y="660" width="170" height="30" as="geometry" />
        </mxCell>
        <mxCell id="Z_0ai8Y_tWjGVad-D_t0-21" value="&lt;u&gt;Level: Medium&lt;/u&gt;" style="text;html=1;points=[];align=center;verticalAlign=top;spacingTop=-4;fontSize=15;fontFamily=Verdana" vertex="1" parent="5j2xh_ovKFnSH8uevvw1-1">
          <mxGeometry x="436" y="660" width="170" height="30" as="geometry" />
        </mxCell>
        <mxCell id="Z_0ai8Y_tWjGVad-D_t0-20" value="&lt;u&gt;Level: Hard&lt;/u&gt;" style="text;html=1;points=[];align=center;verticalAlign=top;spacingTop=-4;fontSize=15;fontFamily=Verdana" vertex="1" parent="5j2xh_ovKFnSH8uevvw1-1">
          <mxGeometry x="804.06" y="660" width="170" height="30" as="geometry" />
        </mxCell>
        <mxCell id="Z_0ai8Y_tWjGVad-D_t0-23" value="" style="verticalLabelPosition=bottom;shadow=0;dashed=0;align=center;html=1;verticalAlign=top;strokeWidth=1;shape=mxgraph.mockup.markup.line;strokeColor=#999999;rounded=0;labelBackgroundColor=none;fillColor=#ffffff;fontFamily=Verdana;fontSize=12;fontColor=#000000;rotation=90;" vertex="1" parent="5j2xh_ovKFnSH8uevvw1-1">
          <mxGeometry x="610.5" y="352.63" width="498.25" height="20" as="geometry" />
        </mxCell>
        <mxCell id="Z_0ai8Y_tWjGVad-D_t0-24" value="" style="shape=image;html=1;verticalAlign=top;verticalLabelPosition=bottom;labelBackgroundColor=#ffffff;imageAspect=0;aspect=fixed;image=https://cdn0.iconfinder.com/data/icons/business-and-education-1/512/1_man_manager_sms_chat_popup-128.png" vertex="1" parent="5j2xh_ovKFnSH8uevvw1-1">
          <mxGeometry x="920" y="115" width="85" height="85" as="geometry" />
        </mxCell>
        <mxCell id="Z_0ai8Y_tWjGVad-D_t0-25" value="&lt;ol&gt;&lt;li&gt;User A&amp;nbsp; &amp;nbsp; &amp;nbsp; &amp;nbsp; &amp;nbsp; &amp;nbsp; XX:XX&lt;/li&gt;&lt;li&gt;User B&amp;nbsp; &amp;nbsp; &amp;nbsp; &amp;nbsp; &amp;nbsp; &amp;nbsp; XX:XX&lt;/li&gt;&lt;li&gt;User C&amp;nbsp; &amp;nbsp; &amp;nbsp; &amp;nbsp; &amp;nbsp; &amp;nbsp; XX:XX&lt;/li&gt;&lt;li&gt;User D&amp;nbsp; &amp;nbsp; &amp;nbsp; &amp;nbsp; &amp;nbsp; &amp;nbsp; XX:XX&lt;/li&gt;&lt;li&gt;User E&amp;nbsp; &amp;nbsp; &amp;nbsp; &amp;nbsp; &amp;nbsp; &amp;nbsp; XX:XX&amp;nbsp;&lt;/li&gt;&lt;li&gt;...&amp;nbsp; &amp;nbsp; &amp;nbsp; &amp;nbsp; &amp;nbsp; &amp;nbsp; &amp;nbsp; &amp;nbsp; &amp;nbsp; &amp;nbsp; &amp;nbsp;...&lt;/li&gt;&lt;li&gt;Anonymous&amp;nbsp; &amp;nbsp; &amp;nbsp;XX:XX&lt;/li&gt;&lt;li&gt;...&amp;nbsp; &amp;nbsp; &amp;nbsp; &amp;nbsp; &amp;nbsp; &amp;nbsp; &amp;nbsp; &amp;nbsp; &amp;nbsp; &amp;nbsp; &amp;nbsp;...&lt;/li&gt;&lt;/ol&gt;" style="text;html=1;points=[];align=left;verticalAlign=top;spacingTop=-4;fontSize=15;fontFamily=Verdana" vertex="1" parent="5j2xh_ovKFnSH8uevvw1-1">
          <mxGeometry x="30" y="662.5" width="270" height="170" as="geometry" />
        </mxCell>
        <mxCell id="Z_0ai8Y_tWjGVad-D_t0-27" value="&lt;ol&gt;&lt;li&gt;User A&amp;nbsp; &amp;nbsp; &amp;nbsp; &amp;nbsp; &amp;nbsp; &amp;nbsp; &amp;nbsp; &amp;nbsp;XX:XX&lt;/li&gt;&lt;li&gt;User B&amp;nbsp; &amp;nbsp; &amp;nbsp; &amp;nbsp; &amp;nbsp; &amp;nbsp; &amp;nbsp; &amp;nbsp;XX:XX&lt;/li&gt;&lt;li&gt;User C&amp;nbsp; &amp;nbsp; &amp;nbsp; &amp;nbsp; &amp;nbsp; &amp;nbsp; &amp;nbsp; &amp;nbsp;XX:XX&lt;/li&gt;&lt;li&gt;User D&amp;nbsp; &amp;nbsp; &amp;nbsp; &amp;nbsp; &amp;nbsp; &amp;nbsp; &amp;nbsp; &amp;nbsp;XX:XX&lt;/li&gt;&lt;li&gt;User E&amp;nbsp; &amp;nbsp; &amp;nbsp; &amp;nbsp; &amp;nbsp; &amp;nbsp; &amp;nbsp; &amp;nbsp;XX:XX&amp;nbsp;&lt;/li&gt;&lt;li&gt;Anonymous&amp;nbsp; &amp;nbsp; &amp;nbsp; &amp;nbsp; XX:XX&lt;/li&gt;&lt;li&gt;...&amp;nbsp; &amp;nbsp; &amp;nbsp; &amp;nbsp; &amp;nbsp; &amp;nbsp; &amp;nbsp; &amp;nbsp; &amp;nbsp; &amp;nbsp; &amp;nbsp; &amp;nbsp; ...&lt;/li&gt;&lt;li&gt;...&amp;nbsp; &amp;nbsp; &amp;nbsp; &amp;nbsp; &amp;nbsp; &amp;nbsp; &amp;nbsp; &amp;nbsp; &amp;nbsp; &amp;nbsp; &amp;nbsp; &amp;nbsp; ...&amp;nbsp;&lt;/li&gt;&lt;/ol&gt;" style="text;html=1;points=[];align=left;verticalAlign=top;spacingTop=-4;fontSize=15;fontFamily=Verdana" vertex="1" parent="5j2xh_ovKFnSH8uevvw1-1">
          <mxGeometry x="380" y="662.5" width="270" height="170" as="geometry" />
        </mxCell>
        <mxCell id="Z_0ai8Y_tWjGVad-D_t0-26" value="&lt;ol&gt;&lt;li&gt;User A&amp;nbsp; &amp;nbsp; &amp;nbsp; &amp;nbsp; &amp;nbsp; &amp;nbsp; &amp;nbsp; &amp;nbsp; XX:XX&lt;/li&gt;&lt;li&gt;User B&amp;nbsp; &amp;nbsp; &amp;nbsp; &amp;nbsp; &amp;nbsp; &amp;nbsp; &amp;nbsp; &amp;nbsp; XX:XX&amp;nbsp;&lt;/li&gt;&lt;li&gt;User C&amp;nbsp; &amp;nbsp; &amp;nbsp; &amp;nbsp; &amp;nbsp; &amp;nbsp; &amp;nbsp; &amp;nbsp; XX:XX&lt;/li&gt;&lt;li&gt;User D&amp;nbsp; &amp;nbsp; &amp;nbsp; &amp;nbsp; &amp;nbsp; &amp;nbsp; &amp;nbsp; &amp;nbsp; XX:XX&lt;/li&gt;&lt;li&gt;User E&amp;nbsp; &amp;nbsp; &amp;nbsp; &amp;nbsp; &amp;nbsp; &amp;nbsp; &amp;nbsp; &amp;nbsp; XX:XX&lt;/li&gt;&lt;li&gt;...&amp;nbsp; &amp;nbsp; &amp;nbsp; &amp;nbsp; &amp;nbsp; &amp;nbsp; &amp;nbsp; &amp;nbsp; &amp;nbsp; &amp;nbsp; &amp;nbsp; &amp;nbsp; &amp;nbsp;...&lt;/li&gt;&lt;li&gt;...&amp;nbsp; &amp;nbsp; &amp;nbsp; &amp;nbsp; &amp;nbsp; &amp;nbsp; &amp;nbsp; &amp;nbsp; &amp;nbsp; &amp;nbsp; &amp;nbsp; &amp;nbsp; &amp;nbsp;...&lt;/li&gt;&lt;li&gt;Anonymous&amp;nbsp; &amp;nbsp; &amp;nbsp; &amp;nbsp; &amp;nbsp;XX:XX&lt;/li&gt;&lt;/ol&gt;" style="text;html=1;points=[];align=left;verticalAlign=top;spacingTop=-4;fontSize=15;fontFamily=Verdana" vertex="1" parent="5j2xh_ovKFnSH8uevvw1-1">
          <mxGeometry x="750" y="662.5" width="270" height="170" as="geometry" />
        </mxCell>
        <mxCell id="Z_0ai8Y_tWjGVad-D_t0-31" value="&lt;u&gt;User&#39;s Details&lt;/u&gt;&lt;br&gt;&lt;br&gt;User Name: Anonymous&lt;br&gt;&lt;span style=&quot;font-family: Helvetica; font-size: 16px; text-align: left; background-color: initial;&quot;&gt;Last Login at XX:XX time&lt;br&gt;&lt;/span&gt;&lt;span style=&quot;font-family: Helvetica; font-size: 16px; text-align: left; background-color: initial;&quot;&gt;High Score: XX&lt;br&gt;&lt;/span&gt;&lt;span style=&quot;font-family: Helvetica; font-size: 16px; text-align: left; background-color: initial;&quot;&gt;Number of Sessions: X&lt;br&gt;&lt;/span&gt;&lt;span style=&quot;font-family: Helvetica; font-size: 16px; text-align: left; background-color: initial;&quot;&gt;Average Login per day: X&lt;br&gt;&lt;/span&gt;&lt;span style=&quot;font-family: Helvetica; font-size: 16px; text-align: left; background-color: initial;&quot;&gt;Total Rewards earned: X&lt;br&gt;&lt;/span&gt;&lt;span style=&quot;font-family: Helvetica; font-size: 16px; text-align: left; background-color: initial;&quot;&gt;User&#39;s recent games: ...&lt;br&gt;&lt;/span&gt;&lt;span style=&quot;font-family: Helvetica; font-size: 16px; text-align: left; background-color: initial;&quot;&gt;...&lt;br&gt;&lt;/span&gt;&lt;span style=&quot;font-family: Helvetica; font-size: 16px; text-align: left; background-color: initial;&quot;&gt;...&lt;br&gt;&lt;/span&gt;&lt;span style=&quot;font-family: Helvetica; font-size: 16px; text-align: left; background-color: initial;&quot;&gt;...&lt;br&gt;&lt;/span&gt;&lt;span style=&quot;font-family: Helvetica; font-size: 16px; text-align: left; background-color: initial;&quot;&gt;...&lt;/span&gt;&lt;span style=&quot;font-family: Helvetica; font-size: 16px; text-align: left; background-color: initial;&quot;&gt;&lt;br&gt;&lt;/span&gt;" style="text;html=1;points=[];align=center;verticalAlign=top;spacingTop=-4;fontSize=15;fontFamily=Verdana" vertex="1" parent="5j2xh_ovKFnSH8uevvw1-1">
          <mxGeometry x="860" y="225" width="210" height="365" as="geometry" />
        </mxCell>
        <mxCell id="Z_0ai8Y_tWjGVad-D_t0-32" value="" style="verticalLabelPosition=bottom;shadow=0;dashed=0;align=center;html=1;verticalAlign=top;strokeWidth=1;shape=mxgraph.mockup.graphics.simpleIcon;strokeColor=#999999;fillColor=#ffffff;rounded=0;labelBackgroundColor=none;fontFamily=Verdana;fontSize=12;fontColor=#000000;" vertex="1" parent="5j2xh_ovKFnSH8uevvw1-1">
          <mxGeometry x="140" y="215" width="560" height="290" as="geometry" />
        </mxCell>
        <mxCell id="Z_0ai8Y_tWjGVad-D_t0-33" value="" style="verticalLabelPosition=bottom;verticalAlign=top;html=1;shadow=0;dashed=0;strokeWidth=1;shape=mxgraph.ios.iIconGrid;gridSize=3,3;" vertex="1" parent="5j2xh_ovKFnSH8uevvw1-1">
          <mxGeometry x="140" y="215" width="560" height="290" as="geometry" />
        </mxCell>
        <mxCell id="Z_0ai8Y_tWjGVad-D_t0-63" value="Show Full History" style="strokeWidth=1;shadow=0;dashed=0;align=center;html=1;shape=mxgraph.mockup.buttons.button;strokeColor=#666666;mainText=;buttonStyle=round;fontSize=17;fontStyle=0;fillColor=none;whiteSpace=wrap;rounded=0;labelBackgroundColor=none;" vertex="1" parent="5j2xh_ovKFnSH8uevvw1-1">
          <mxGeometry x="890" y="565" width="145" height="25" as="geometry" />
        </mxCell>
        <mxCell id="Z_0ai8Y_tWjGVad-D_t0-65" value="Sample Words which needs to be found in the grid" style="strokeWidth=1;shadow=0;dashed=0;align=center;html=1;shape=mxgraph.mockup.text.textBox;fontColor=#666666;align=left;fontSize=17;spacingLeft=4;spacingTop=-3;whiteSpace=wrap;strokeColor=#666666;mainText=" vertex="1" parent="5j2xh_ovKFnSH8uevvw1-1">
          <mxGeometry x="190" y="525" width="600" height="65" as="geometry" />
        </mxCell>
        <mxCell id="Z_0ai8Y_tWjGVad-D_t0-66" value="&lt;b&gt;Words to be found:&lt;/b&gt;" style="text;html=1;points=[];align=left;verticalAlign=top;spacingTop=-4;fontSize=15;fontFamily=Verdana" vertex="1" parent="5j2xh_ovKFnSH8uevvw1-1">
          <mxGeometry x="20" y="535" width="160" height="30" as="geometry" />
        </mxCell>
        <mxCell id="Z_0ai8Y_tWjGVad-D_t0-67" value="&lt;b&gt;Choose the Level&lt;br&gt;&lt;/b&gt;" style="text;html=1;points=[];align=left;verticalAlign=top;spacingTop=-4;fontSize=15;fontFamily=Verdana" vertex="1" parent="5j2xh_ovKFnSH8uevvw1-1">
          <mxGeometry x="30" y="142.5" width="160" height="30" as="geometry" />
        </mxCell>
        <mxCell id="Z_0ai8Y_tWjGVad-D_t0-69" value="" style="shape=image;html=1;verticalAlign=top;verticalLabelPosition=bottom;labelBackgroundColor=#ffffff;imageAspect=0;aspect=fixed;image=https://cdn2.iconfinder.com/data/icons/navigation-set-arrows-part-two/32/Arrow_Drop_Down_Circle-128.png" vertex="1" parent="5j2xh_ovKFnSH8uevvw1-1">
          <mxGeometry x="180" y="140.5" width="34" height="34" as="geometry" />
        </mxCell>
        <mxCell id="Z_0ai8Y_tWjGVad-D_t0-70" value="Level: Easy&lt;br&gt;Level: Medium&lt;br&gt;Level: Hard" style="shape=callout;whiteSpace=wrap;html=1;perimeter=calloutPerimeter;rotation=0;" vertex="1" parent="5j2xh_ovKFnSH8uevvw1-1">
          <mxGeometry x="150" y="86" width="120" height="80" as="geometry" />
        </mxCell>
        <mxCell id="Z_0ai8Y_tWjGVad-D_t0-71" value="New Game" style="labelPosition=center;verticalLabelPosition=middle;align=center;html=1;shape=mxgraph.basic.shaded_button;dx=10;fillColor=#E6E6E6;strokeColor=none;whiteSpace=wrap;" vertex="1" parent="5j2xh_ovKFnSH8uevvw1-1">
          <mxGeometry x="730" y="127.5" width="100" height="60" as="geometry" />
        </mxCell>
        <mxCell id="Z_0ai8Y_tWjGVad-D_t0-72" value="Clear" style="labelPosition=center;verticalLabelPosition=middle;align=center;html=1;shape=mxgraph.basic.shaded_button;dx=10;fillColor=#E6E6E6;strokeColor=none;whiteSpace=wrap;" vertex="1" parent="5j2xh_ovKFnSH8uevvw1-1">
          <mxGeometry x="730" y="435" width="100" height="60" as="geometry" />
        </mxCell>
        <mxCell id="Z_0ai8Y_tWjGVad-D_t0-73" value="" style="shape=image;html=1;verticalAlign=top;verticalLabelPosition=bottom;labelBackgroundColor=#ffffff;imageAspect=0;aspect=fixed;image=https://cdn4.iconfinder.com/data/icons/48-bubbles/48/35.Alarm-Clock-128.png" vertex="1" parent="5j2xh_ovKFnSH8uevvw1-1">
          <mxGeometry x="508" y="122.5" width="65" height="65" as="geometry" />
        </mxCell>
        <mxCell id="Z_0ai8Y_tWjGVad-D_t0-74" value="00:00" style="strokeWidth=1;shadow=0;dashed=0;align=center;html=1;shape=mxgraph.mockup.text.textBox;fontColor=#666666;align=left;fontSize=17;spacingLeft=4;spacingTop=-3;whiteSpace=wrap;strokeColor=#666666;mainText=" vertex="1" parent="5j2xh_ovKFnSH8uevvw1-1">
          <mxGeometry x="580" y="142.5" width="90" height="30" as="geometry" />
        </mxCell>
        <mxCell id="2khurb79DYKFhvJ5f-HX-36" value="&lt;b&gt;Number of tries left:&lt;/b&gt;" style="text;html=1;points=[];align=left;verticalAlign=top;spacingTop=-4;fontSize=15;fontFamily=Verdana" vertex="1" parent="5j2xh_ovKFnSH8uevvw1-1">
          <mxGeometry x="240" y="142.5" width="180" height="30" as="geometry" />
        </mxCell>
        <mxCell id="2khurb79DYKFhvJ5f-HX-37" value="0" style="strokeWidth=1;shadow=0;dashed=0;align=center;html=1;shape=mxgraph.mockup.text.textBox;fontColor=#666666;align=left;fontSize=17;spacingLeft=4;spacingTop=-3;whiteSpace=wrap;strokeColor=#666666;mainText=" vertex="1" parent="5j2xh_ovKFnSH8uevvw1-1">
          <mxGeometry x="418" y="140.5" width="42" height="30" as="geometry" />
        </mxCell>
        <mxCell id="2khurb79DYKFhvJ5f-HX-40" value="Game Logo" style="strokeWidth=1;html=1;shadow=0;dashed=0;shape=mxgraph.ios.iButtonBack;strokeColor=#444444;fontColor=#ffffff;buttonText=;fontSize=8;fillColor=#dddddd;fillColor2=#3D5565;spacingLeft=10;whiteSpace=wrap;align=center;sketch=0;" vertex="1" parent="5j2xh_ovKFnSH8uevvw1-1">
          <mxGeometry x="10" y="118.5" width="90" height="15" as="geometry" />
        </mxCell>
        <mxCell id="2khurb79DYKFhvJ5f-HX-1" value="" style="strokeWidth=1;shadow=0;dashed=0;align=center;html=1;shape=mxgraph.mockup.containers.browserWindow;rSize=0;strokeColor=#666666;mainText=,;recursiveResize=0;rounded=0;labelBackgroundColor=none;fontFamily=Verdana;fontSize=12" vertex="1" parent="1">
          <mxGeometry y="865" width="1090" height="835" as="geometry" />
        </mxCell>
        <mxCell id="53auGICcM6ZBrloDtgbD-10" value="" style="edgeStyle=orthogonalEdgeStyle;rounded=0;orthogonalLoop=1;jettySize=auto;html=1;" edge="1" parent="2khurb79DYKFhvJ5f-HX-1" source="2khurb79DYKFhvJ5f-HX-2" target="2khurb79DYKFhvJ5f-HX-3">
          <mxGeometry relative="1" as="geometry" />
        </mxCell>
        <mxCell id="2khurb79DYKFhvJ5f-HX-2" value="Today&#39;s Reward Game" style="strokeWidth=1;shadow=0;dashed=0;align=center;html=1;shape=mxgraph.mockup.containers.anchor;fontSize=17;fontColor=#666666;align=left;" vertex="1" parent="2khurb79DYKFhvJ5f-HX-1">
          <mxGeometry x="60" y="12" width="110" height="26" as="geometry" />
        </mxCell>
        <mxCell id="2khurb79DYKFhvJ5f-HX-3" value="https://www.pruplekittysquad.com" style="strokeWidth=1;shadow=0;dashed=0;align=center;html=1;shape=mxgraph.mockup.containers.anchor;rSize=0;fontSize=17;fontColor=#666666;align=left;" vertex="1" parent="2khurb79DYKFhvJ5f-HX-1">
          <mxGeometry x="130" y="60" width="250" height="26" as="geometry" />
        </mxCell>
        <mxCell id="2khurb79DYKFhvJ5f-HX-5" value="&lt;b&gt;&lt;u&gt;Leaderboard&lt;/u&gt;&lt;/b&gt;" style="text;html=1;points=[];align=center;verticalAlign=top;spacingTop=-4;fontSize=15;fontFamily=Verdana" vertex="1" parent="2khurb79DYKFhvJ5f-HX-1">
          <mxGeometry x="820" y="120" width="170" height="30" as="geometry" />
        </mxCell>
        <mxCell id="2khurb79DYKFhvJ5f-HX-9" value="Refresh" style="strokeWidth=1;shadow=0;dashed=0;align=center;html=1;shape=mxgraph.mockup.buttons.button;strokeColor=#666666;mainText=;buttonStyle=round;fontSize=17;fontStyle=0;fillColor=none;whiteSpace=wrap;rounded=0;labelBackgroundColor=none;" vertex="1" parent="2khurb79DYKFhvJ5f-HX-1">
          <mxGeometry x="970" y="120" width="110" height="25" as="geometry" />
        </mxCell>
        <mxCell id="2khurb79DYKFhvJ5f-HX-13" value="User&#39;s Name" style="text;html=1;points=[];align=center;verticalAlign=top;spacingTop=-4;fontSize=15;fontFamily=Verdana" vertex="1" parent="2khurb79DYKFhvJ5f-HX-1">
          <mxGeometry x="670" y="207.5" width="120" height="30" as="geometry" />
        </mxCell>
        <mxCell id="2khurb79DYKFhvJ5f-HX-17" value="" style="verticalLabelPosition=bottom;shadow=0;dashed=0;align=center;html=1;verticalAlign=top;strokeWidth=1;shape=mxgraph.mockup.markup.line;strokeColor=#999999;rounded=0;labelBackgroundColor=none;fillColor=#ffffff;fontFamily=Verdana;fontSize=12;fontColor=#000000;rotation=90;" vertex="1" parent="2khurb79DYKFhvJ5f-HX-1">
          <mxGeometry x="450" y="462.5" width="720" height="20" as="geometry" />
        </mxCell>
        <mxCell id="2khurb79DYKFhvJ5f-HX-18" value="" style="shape=image;html=1;verticalAlign=top;verticalLabelPosition=bottom;labelBackgroundColor=#ffffff;imageAspect=0;aspect=fixed;image=https://cdn0.iconfinder.com/data/icons/business-and-education-1/512/1_man_manager_sms_chat_popup-128.png" vertex="1" parent="2khurb79DYKFhvJ5f-HX-1">
          <mxGeometry x="685" y="122.5" width="85" height="85" as="geometry" />
        </mxCell>
        <mxCell id="2khurb79DYKFhvJ5f-HX-23" value="" style="verticalLabelPosition=bottom;shadow=0;dashed=0;align=center;html=1;verticalAlign=top;strokeWidth=1;shape=mxgraph.mockup.graphics.simpleIcon;strokeColor=#999999;fillColor=#ffffff;rounded=0;labelBackgroundColor=none;fontFamily=Verdana;fontSize=12;fontColor=#000000;" vertex="1" parent="2khurb79DYKFhvJ5f-HX-1">
          <mxGeometry x="85" y="270" width="560" height="390" as="geometry" />
        </mxCell>
        <mxCell id="2khurb79DYKFhvJ5f-HX-24" value="" style="verticalLabelPosition=bottom;verticalAlign=top;html=1;shadow=0;dashed=0;strokeWidth=1;shape=mxgraph.ios.iIconGrid;gridSize=3,3;" vertex="1" parent="2khurb79DYKFhvJ5f-HX-1">
          <mxGeometry x="85" y="270" width="560" height="390" as="geometry" />
        </mxCell>
        <mxCell id="2khurb79DYKFhvJ5f-HX-26" value="Sample Words which needs to be found in the grid" style="strokeWidth=1;shadow=0;dashed=0;align=center;html=1;shape=mxgraph.mockup.text.textBox;fontColor=#666666;align=left;fontSize=17;spacingLeft=4;spacingTop=-3;whiteSpace=wrap;strokeColor=#666666;mainText=" vertex="1" parent="2khurb79DYKFhvJ5f-HX-1">
          <mxGeometry x="200" y="705" width="570" height="65" as="geometry" />
        </mxCell>
        <mxCell id="2khurb79DYKFhvJ5f-HX-27" value="&lt;b&gt;Words to be found:&lt;/b&gt;" style="text;html=1;points=[];align=left;verticalAlign=top;spacingTop=-4;fontSize=15;fontFamily=Verdana" vertex="1" parent="2khurb79DYKFhvJ5f-HX-1">
          <mxGeometry x="20" y="735" width="160" height="30" as="geometry" />
        </mxCell>
        <mxCell id="2khurb79DYKFhvJ5f-HX-32" value="Clear" style="labelPosition=center;verticalLabelPosition=middle;align=center;html=1;shape=mxgraph.basic.shaded_button;dx=10;fillColor=#E6E6E6;strokeColor=none;whiteSpace=wrap;" vertex="1" parent="2khurb79DYKFhvJ5f-HX-1">
          <mxGeometry x="677.5" y="615" width="100" height="60" as="geometry" />
        </mxCell>
        <mxCell id="2khurb79DYKFhvJ5f-HX-33" value="" style="shape=image;html=1;verticalAlign=top;verticalLabelPosition=bottom;labelBackgroundColor=#ffffff;imageAspect=0;aspect=fixed;image=https://cdn4.iconfinder.com/data/icons/48-bubbles/48/35.Alarm-Clock-128.png" vertex="1" parent="2khurb79DYKFhvJ5f-HX-1">
          <mxGeometry x="25" y="160" width="65" height="65" as="geometry" />
        </mxCell>
        <mxCell id="2khurb79DYKFhvJ5f-HX-34" value="00:00" style="strokeWidth=1;shadow=0;dashed=0;align=center;html=1;shape=mxgraph.mockup.text.textBox;fontColor=#666666;align=left;fontSize=17;spacingLeft=4;spacingTop=-3;whiteSpace=wrap;strokeColor=#666666;mainText=" vertex="1" parent="2khurb79DYKFhvJ5f-HX-1">
          <mxGeometry x="120" y="177.5" width="90" height="30" as="geometry" />
        </mxCell>
        <mxCell id="2khurb79DYKFhvJ5f-HX-35" value="" style="verticalLabelPosition=bottom;shadow=0;dashed=0;align=center;html=1;verticalAlign=top;strokeWidth=1;shape=mxgraph.mockup.markup.line;strokeColor=#999999;rounded=0;labelBackgroundColor=none;fillColor=#ffffff;fontFamily=Verdana;fontSize=12;fontColor=#000000;rotation=0;" vertex="1" parent="2khurb79DYKFhvJ5f-HX-1">
          <mxGeometry x="810" y="150" width="280" height="20" as="geometry" />
        </mxCell>
        <mxCell id="2khurb79DYKFhvJ5f-HX-12" value="" style="verticalLabelPosition=bottom;shadow=0;dashed=0;align=center;html=1;verticalAlign=top;strokeWidth=1;shape=mxgraph.mockup.navigation.scrollBar;strokeColor=#999999;barPos=69.702;fillColor2=#99ddff;strokeColor2=none;direction=north;" vertex="1" parent="2khurb79DYKFhvJ5f-HX-1">
          <mxGeometry x="1070" y="160" width="20" height="665" as="geometry" />
        </mxCell>
        <mxCell id="2khurb79DYKFhvJ5f-HX-39" value="Game Logo" style="strokeWidth=1;html=1;shadow=0;dashed=0;shape=mxgraph.ios.iButtonBack;strokeColor=#444444;fontColor=#ffffff;buttonText=;fontSize=8;fillColor=#dddddd;fillColor2=#3D5565;spacingLeft=10;whiteSpace=wrap;align=center;sketch=0;" vertex="1" parent="2khurb79DYKFhvJ5f-HX-1">
          <mxGeometry x="10" y="115" width="90" height="15" as="geometry" />
        </mxCell>
        <mxCell id="2khurb79DYKFhvJ5f-HX-41" value="&lt;b&gt;&lt;u&gt;&lt;font style=&quot;font-size: 20px;&quot;&gt;Today&#39;s Reward Game&lt;/font&gt;&lt;/u&gt;&lt;/b&gt;" style="text;html=1;points=[];align=center;verticalAlign=top;spacingTop=-4;fontSize=15;fontFamily=Verdana" vertex="1" parent="2khurb79DYKFhvJ5f-HX-1">
          <mxGeometry x="240" y="160" width="310" height="30" as="geometry" />
        </mxCell>
        <mxCell id="2khurb79DYKFhvJ5f-HX-42" value="Today&#39;s Date: MM/DD/YY&lt;br&gt;&lt;br&gt;&lt;div style=&quot;&quot;&gt;&lt;ol&gt;&lt;li&gt;User A&amp;nbsp; &amp;nbsp; &amp;nbsp; &amp;nbsp; &amp;nbsp; &amp;nbsp; &amp;nbsp; XX:XX&lt;/li&gt;&lt;li&gt;User B&amp;nbsp; &amp;nbsp; &amp;nbsp; &amp;nbsp; &amp;nbsp; &amp;nbsp; &amp;nbsp; XX:XX&lt;/li&gt;&lt;li&gt;User C&amp;nbsp; &amp;nbsp; &amp;nbsp; &amp;nbsp; &amp;nbsp; &amp;nbsp; &amp;nbsp; XX:XX&lt;/li&gt;&lt;li&gt;Anonymous&amp;nbsp; &amp;nbsp; &amp;nbsp; &amp;nbsp;XX:XX&lt;/li&gt;&lt;li&gt;User D&amp;nbsp; &amp;nbsp; &amp;nbsp; &amp;nbsp; &amp;nbsp; &amp;nbsp; &amp;nbsp; XX:XX&lt;/li&gt;&lt;li&gt;User E&amp;nbsp; &amp;nbsp; &amp;nbsp; &amp;nbsp; &amp;nbsp; &amp;nbsp; &amp;nbsp; XX:XX&lt;/li&gt;&lt;li&gt;User F&amp;nbsp; &amp;nbsp; &amp;nbsp; &amp;nbsp; &amp;nbsp; &amp;nbsp; &amp;nbsp; XX:XX&lt;/li&gt;&lt;li&gt;Anonymous&amp;nbsp; &amp;nbsp; &amp;nbsp; &amp;nbsp;XX:XX&amp;nbsp;&lt;/li&gt;&lt;li&gt;Anonymous&amp;nbsp; &amp;nbsp; &amp;nbsp; &amp;nbsp;XX:XX&lt;/li&gt;&lt;li&gt;Anonymous&amp;nbsp; &amp;nbsp; &amp;nbsp; &amp;nbsp;XX:XX&amp;nbsp;&lt;/li&gt;&lt;li&gt;User G&amp;nbsp; &amp;nbsp; &amp;nbsp; &amp;nbsp; &amp;nbsp; &amp;nbsp; &amp;nbsp; XX:XX&lt;/li&gt;&lt;li&gt;Anonymous&amp;nbsp; &amp;nbsp; &amp;nbsp; &amp;nbsp;XX:XX&lt;/li&gt;&lt;li&gt;User H&amp;nbsp; &amp;nbsp; &amp;nbsp; &amp;nbsp; &amp;nbsp; &amp;nbsp; &amp;nbsp; XX:XX&lt;/li&gt;&lt;li&gt;User I&amp;nbsp; &amp;nbsp; &amp;nbsp; &amp;nbsp; &amp;nbsp; &amp;nbsp; &amp;nbsp; &amp;nbsp;XX:XX&lt;/li&gt;&lt;li&gt;User J&amp;nbsp; &amp;nbsp; &amp;nbsp; &amp;nbsp; &amp;nbsp; &amp;nbsp; &amp;nbsp; &amp;nbsp;XX:XX&lt;/li&gt;&lt;li&gt;...&amp;nbsp; &amp;nbsp; &amp;nbsp; &amp;nbsp; &amp;nbsp; &amp;nbsp; &amp;nbsp; &amp;nbsp; &amp;nbsp; &amp;nbsp; &amp;nbsp; &amp;nbsp;...&lt;/li&gt;&lt;li&gt;...&amp;nbsp; &amp;nbsp; &amp;nbsp; &amp;nbsp; &amp;nbsp; &amp;nbsp; &amp;nbsp; &amp;nbsp; &amp;nbsp; &amp;nbsp; &amp;nbsp; &amp;nbsp;...&lt;/li&gt;&lt;li&gt;...&amp;nbsp; &amp;nbsp; &amp;nbsp; &amp;nbsp; &amp;nbsp; &amp;nbsp; &amp;nbsp; &amp;nbsp; &amp;nbsp; &amp;nbsp; &amp;nbsp; &amp;nbsp;...&amp;nbsp;&lt;/li&gt;&lt;li&gt;...&amp;nbsp; &amp;nbsp; &amp;nbsp; &amp;nbsp; &amp;nbsp; &amp;nbsp; &amp;nbsp; &amp;nbsp; &amp;nbsp; &amp;nbsp; &amp;nbsp; &amp;nbsp;...&lt;/li&gt;&lt;li&gt;...&amp;nbsp; &amp;nbsp; &amp;nbsp; &amp;nbsp; &amp;nbsp; &amp;nbsp; &amp;nbsp; &amp;nbsp; &amp;nbsp; &amp;nbsp; &amp;nbsp; &amp;nbsp;...&lt;/li&gt;&lt;li&gt;...&amp;nbsp; &amp;nbsp; &amp;nbsp; &amp;nbsp; &amp;nbsp; &amp;nbsp; &amp;nbsp; &amp;nbsp; &amp;nbsp; &amp;nbsp; &amp;nbsp; &amp;nbsp;...&lt;/li&gt;&lt;li&gt;...&amp;nbsp; &amp;nbsp; &amp;nbsp; &amp;nbsp; &amp;nbsp; &amp;nbsp; &amp;nbsp; &amp;nbsp; &amp;nbsp; &amp;nbsp; &amp;nbsp; &amp;nbsp;...&amp;nbsp;&lt;/li&gt;&lt;li&gt;...&amp;nbsp; &amp;nbsp; &amp;nbsp; &amp;nbsp; &amp;nbsp; &amp;nbsp; &amp;nbsp; &amp;nbsp; &amp;nbsp; &amp;nbsp; &amp;nbsp; &amp;nbsp;...&lt;/li&gt;&lt;li&gt;...&amp;nbsp; &amp;nbsp; &amp;nbsp; &amp;nbsp; &amp;nbsp; &amp;nbsp; &amp;nbsp; &amp;nbsp; &amp;nbsp; &amp;nbsp; &amp;nbsp; &amp;nbsp;...&lt;/li&gt;&lt;li&gt;...&amp;nbsp; &amp;nbsp; &amp;nbsp; &amp;nbsp; &amp;nbsp; &amp;nbsp; &amp;nbsp; &amp;nbsp; &amp;nbsp; &amp;nbsp; &amp;nbsp; &amp;nbsp;...&amp;nbsp;&lt;/li&gt;&lt;li&gt;...&amp;nbsp; &amp;nbsp; &amp;nbsp; &amp;nbsp; &amp;nbsp; &amp;nbsp; &amp;nbsp; &amp;nbsp; &amp;nbsp; &amp;nbsp; &amp;nbsp; &amp;nbsp;...&lt;/li&gt;&lt;li&gt;...&amp;nbsp; &amp;nbsp; &amp;nbsp; &amp;nbsp; &amp;nbsp; &amp;nbsp; &amp;nbsp; &amp;nbsp; &amp;nbsp; &amp;nbsp; &amp;nbsp; &amp;nbsp;...&lt;/li&gt;&lt;li&gt;...&amp;nbsp; &amp;nbsp; &amp;nbsp; &amp;nbsp; &amp;nbsp; &amp;nbsp; &amp;nbsp; &amp;nbsp; &amp;nbsp; &amp;nbsp; &amp;nbsp; &amp;nbsp;...&lt;/li&gt;&lt;li&gt;...&amp;nbsp; &amp;nbsp; &amp;nbsp; &amp;nbsp; &amp;nbsp; &amp;nbsp; &amp;nbsp; &amp;nbsp; &amp;nbsp; &amp;nbsp; &amp;nbsp; &amp;nbsp;...&lt;/li&gt;&lt;li&gt;...&amp;nbsp; &amp;nbsp; &amp;nbsp; &amp;nbsp; &amp;nbsp; &amp;nbsp; &amp;nbsp; &amp;nbsp; &amp;nbsp; &amp;nbsp; &amp;nbsp; &amp;nbsp;...&lt;/li&gt;&lt;/ol&gt;&lt;div&gt;...&lt;/div&gt;&lt;div&gt;...&lt;/div&gt;&lt;/div&gt;" style="text;html=1;points=[];align=left;verticalAlign=top;spacingTop=-4;fontSize=15;fontFamily=Verdana" vertex="1" parent="2khurb79DYKFhvJ5f-HX-1">
          <mxGeometry x="820" y="170" width="240" height="650" as="geometry" />
        </mxCell>
        <mxCell id="IKQh71IgR7tZ8Vpg5hGH-5" value="&lt;b&gt;Number of tries left:&lt;/b&gt;" style="text;html=1;points=[];align=left;verticalAlign=top;spacingTop=-4;fontSize=15;fontFamily=Verdana" vertex="1" parent="2khurb79DYKFhvJ5f-HX-1">
          <mxGeometry x="25" y="225" width="180" height="30" as="geometry" />
        </mxCell>
        <mxCell id="IKQh71IgR7tZ8Vpg5hGH-6" value="0" style="strokeWidth=1;shadow=0;dashed=0;align=center;html=1;shape=mxgraph.mockup.text.textBox;fontColor=#666666;align=left;fontSize=17;spacingLeft=4;spacingTop=-3;whiteSpace=wrap;strokeColor=#666666;mainText=" vertex="1" parent="2khurb79DYKFhvJ5f-HX-1">
          <mxGeometry x="210" y="225" width="42" height="30" as="geometry" />
        </mxCell>
        <mxCell id="2khurb79DYKFhvJ5f-HX-43" value="" style="strokeWidth=1;shadow=0;dashed=0;align=center;html=1;shape=mxgraph.mockup.containers.browserWindow;rSize=0;strokeColor=#666666;mainText=,;recursiveResize=0;rounded=0;labelBackgroundColor=none;fontFamily=Verdana;fontSize=12" vertex="1" parent="1">
          <mxGeometry x="1120" y="870" width="1080" height="810" as="geometry" />
        </mxCell>
        <mxCell id="2khurb79DYKFhvJ5f-HX-44" value="User Puzzle Design" style="strokeWidth=1;shadow=0;dashed=0;align=center;html=1;shape=mxgraph.mockup.containers.anchor;fontSize=17;fontColor=#666666;align=left;" vertex="1" parent="2khurb79DYKFhvJ5f-HX-43">
          <mxGeometry x="60" y="12" width="110" height="26" as="geometry" />
        </mxCell>
        <mxCell id="2khurb79DYKFhvJ5f-HX-45" value="https://www.pruplekittysquad.com" style="strokeWidth=1;shadow=0;dashed=0;align=center;html=1;shape=mxgraph.mockup.containers.anchor;rSize=0;fontSize=17;fontColor=#666666;align=left;" vertex="1" parent="2khurb79DYKFhvJ5f-HX-43">
          <mxGeometry x="130" y="60" width="250" height="26" as="geometry" />
        </mxCell>
        <mxCell id="2khurb79DYKFhvJ5f-HX-55" value="User&#39;s Name" style="text;html=1;points=[];align=left;verticalAlign=top;spacingTop=-4;fontSize=15;fontFamily=Verdana" vertex="1" parent="2khurb79DYKFhvJ5f-HX-43">
          <mxGeometry x="910" y="195" width="120" height="30" as="geometry" />
        </mxCell>
        <mxCell id="2khurb79DYKFhvJ5f-HX-59" value="" style="verticalLabelPosition=bottom;shadow=0;dashed=0;align=center;html=1;verticalAlign=top;strokeWidth=1;shape=mxgraph.mockup.markup.line;strokeColor=#999999;rounded=0;labelBackgroundColor=none;fillColor=#ffffff;fontFamily=Verdana;fontSize=12;fontColor=#000000;rotation=90;" vertex="1" parent="2khurb79DYKFhvJ5f-HX-43">
          <mxGeometry x="514.88" y="448.26" width="689.5" height="20" as="geometry" />
        </mxCell>
        <mxCell id="2khurb79DYKFhvJ5f-HX-60" value="" style="shape=image;html=1;verticalAlign=top;verticalLabelPosition=bottom;labelBackgroundColor=#ffffff;imageAspect=0;aspect=fixed;image=https://cdn0.iconfinder.com/data/icons/business-and-education-1/512/1_man_manager_sms_chat_popup-128.png" vertex="1" parent="2khurb79DYKFhvJ5f-HX-43">
          <mxGeometry x="920" y="115" width="85" height="85" as="geometry" />
        </mxCell>
        <mxCell id="2khurb79DYKFhvJ5f-HX-64" value="&lt;u&gt;User&#39;s Details&lt;/u&gt;&lt;br&gt;&lt;br&gt;User Name: Anonymous&lt;br&gt;&lt;span style=&quot;font-family: Helvetica; font-size: 16px; text-align: left; background-color: initial;&quot;&gt;Last Login at XX:XX time&lt;br&gt;&lt;/span&gt;&lt;span style=&quot;font-family: Helvetica; font-size: 16px; text-align: left; background-color: initial;&quot;&gt;High Score: XX&lt;br&gt;&lt;/span&gt;&lt;span style=&quot;font-family: Helvetica; font-size: 16px; text-align: left; background-color: initial;&quot;&gt;Number of Sessions: X&lt;br&gt;&lt;/span&gt;&lt;span style=&quot;font-family: Helvetica; font-size: 16px; text-align: left; background-color: initial;&quot;&gt;Average Login per day: X&lt;br&gt;&lt;/span&gt;&lt;span style=&quot;font-family: Helvetica; font-size: 16px; text-align: left; background-color: initial;&quot;&gt;Total Rewards earned: X&lt;br&gt;&lt;/span&gt;&lt;span style=&quot;font-family: Helvetica; font-size: 16px; text-align: left; background-color: initial;&quot;&gt;User&#39;s recent games: ...&lt;br&gt;&lt;/span&gt;&lt;span style=&quot;font-family: Helvetica; font-size: 16px; text-align: left; background-color: initial;&quot;&gt;...&lt;br&gt;&lt;/span&gt;&lt;span style=&quot;font-family: Helvetica; font-size: 16px; text-align: left; background-color: initial;&quot;&gt;...&lt;br&gt;&lt;/span&gt;&lt;span style=&quot;font-family: Helvetica; font-size: 16px; text-align: left; background-color: initial;&quot;&gt;...&lt;br&gt;&lt;/span&gt;&lt;span style=&quot;font-family: Helvetica; font-size: 16px; text-align: left; background-color: initial;&quot;&gt;...&lt;/span&gt;&lt;span style=&quot;font-family: Helvetica; font-size: 16px; text-align: left; background-color: initial;&quot;&gt;&lt;br&gt;&lt;/span&gt;" style="text;html=1;points=[];align=center;verticalAlign=top;spacingTop=-4;fontSize=15;fontFamily=Verdana" vertex="1" parent="2khurb79DYKFhvJ5f-HX-43">
          <mxGeometry x="860" y="225" width="210" height="365" as="geometry" />
        </mxCell>
        <mxCell id="2khurb79DYKFhvJ5f-HX-65" value="" style="verticalLabelPosition=bottom;shadow=0;dashed=0;align=center;html=1;verticalAlign=top;strokeWidth=1;shape=mxgraph.mockup.graphics.simpleIcon;strokeColor=#999999;fillColor=#ffffff;rounded=0;labelBackgroundColor=none;fontFamily=Verdana;fontSize=12;fontColor=#000000;" vertex="1" parent="2khurb79DYKFhvJ5f-HX-43">
          <mxGeometry x="50" y="370" width="750" height="400" as="geometry" />
        </mxCell>
        <mxCell id="2khurb79DYKFhvJ5f-HX-66" value="" style="verticalLabelPosition=bottom;verticalAlign=top;html=1;shadow=0;dashed=0;strokeWidth=1;shape=mxgraph.ios.iIconGrid;gridSize=3,3;" vertex="1" parent="2khurb79DYKFhvJ5f-HX-43">
          <mxGeometry x="50" y="370" width="750" height="400" as="geometry" />
        </mxCell>
        <mxCell id="2khurb79DYKFhvJ5f-HX-67" value="Show Full History" style="strokeWidth=1;shadow=0;dashed=0;align=center;html=1;shape=mxgraph.mockup.buttons.button;strokeColor=#666666;mainText=;buttonStyle=round;fontSize=17;fontStyle=0;fillColor=none;whiteSpace=wrap;rounded=0;labelBackgroundColor=none;" vertex="1" parent="2khurb79DYKFhvJ5f-HX-43">
          <mxGeometry x="892.5" y="740" width="145" height="25" as="geometry" />
        </mxCell>
        <mxCell id="2khurb79DYKFhvJ5f-HX-70" value="&lt;b&gt;Choose the Level&lt;br&gt;&lt;/b&gt;" style="text;html=1;points=[];align=left;verticalAlign=top;spacingTop=-4;fontSize=15;fontFamily=Verdana" vertex="1" parent="2khurb79DYKFhvJ5f-HX-43">
          <mxGeometry x="30" y="294" width="160" height="30" as="geometry" />
        </mxCell>
        <mxCell id="2khurb79DYKFhvJ5f-HX-71" value="" style="shape=image;html=1;verticalAlign=top;verticalLabelPosition=bottom;labelBackgroundColor=#ffffff;imageAspect=0;aspect=fixed;image=https://cdn2.iconfinder.com/data/icons/navigation-set-arrows-part-two/32/Arrow_Drop_Down_Circle-128.png" vertex="1" parent="2khurb79DYKFhvJ5f-HX-43">
          <mxGeometry x="180" y="290" width="34" height="34" as="geometry" />
        </mxCell>
        <mxCell id="2khurb79DYKFhvJ5f-HX-72" value="Level: Easy&lt;br&gt;Level: Medium&lt;br&gt;Level: Hard" style="shape=callout;whiteSpace=wrap;html=1;perimeter=calloutPerimeter;rotation=0;" vertex="1" parent="2khurb79DYKFhvJ5f-HX-43">
          <mxGeometry x="156" y="220" width="120" height="80" as="geometry" />
        </mxCell>
        <mxCell id="2khurb79DYKFhvJ5f-HX-73" value="Regenerate" style="labelPosition=center;verticalLabelPosition=middle;align=center;html=1;shape=mxgraph.basic.shaded_button;dx=10;fillColor=#E6E6E6;strokeColor=none;whiteSpace=wrap;" vertex="1" parent="2khurb79DYKFhvJ5f-HX-43">
          <mxGeometry x="480" y="290" width="100" height="60" as="geometry" />
        </mxCell>
        <mxCell id="2khurb79DYKFhvJ5f-HX-77" value="&lt;b&gt;Number of tries:&lt;/b&gt;" style="text;html=1;points=[];align=left;verticalAlign=top;spacingTop=-4;fontSize=15;fontFamily=Verdana" vertex="1" parent="2khurb79DYKFhvJ5f-HX-43">
          <mxGeometry x="632.5" y="290" width="157.5" height="30" as="geometry" />
        </mxCell>
        <mxCell id="2khurb79DYKFhvJ5f-HX-78" value="0" style="strokeWidth=1;shadow=0;dashed=0;align=center;html=1;shape=mxgraph.mockup.text.textBox;fontColor=#666666;align=left;fontSize=17;spacingLeft=4;spacingTop=-3;whiteSpace=wrap;strokeColor=#666666;mainText=" vertex="1" parent="2khurb79DYKFhvJ5f-HX-43">
          <mxGeometry x="780" y="290" width="42" height="30" as="geometry" />
        </mxCell>
        <mxCell id="2khurb79DYKFhvJ5f-HX-79" value="Game Logo" style="strokeWidth=1;html=1;shadow=0;dashed=0;shape=mxgraph.ios.iButtonBack;strokeColor=#444444;fontColor=#ffffff;buttonText=;fontSize=8;fillColor=#dddddd;fillColor2=#3D5565;spacingLeft=10;whiteSpace=wrap;align=center;sketch=0;" vertex="1" parent="2khurb79DYKFhvJ5f-HX-43">
          <mxGeometry x="10" y="118.5" width="90" height="15" as="geometry" />
        </mxCell>
        <mxCell id="IKQh71IgR7tZ8Vpg5hGH-1" value="Confirm" style="labelPosition=center;verticalLabelPosition=middle;align=center;html=1;shape=mxgraph.basic.shaded_button;dx=10;fillColor=#E6E6E6;strokeColor=none;whiteSpace=wrap;" vertex="1" parent="2khurb79DYKFhvJ5f-HX-43">
          <mxGeometry x="310" y="290" width="100" height="60" as="geometry" />
        </mxCell>
        <mxCell id="IKQh71IgR7tZ8Vpg5hGH-2" value="&lt;b&gt;Input Text to make the game:&lt;br&gt;&lt;/b&gt;" style="text;html=1;points=[];align=left;verticalAlign=top;spacingTop=-4;fontSize=15;fontFamily=Verdana" vertex="1" parent="2khurb79DYKFhvJ5f-HX-43">
          <mxGeometry x="30" y="170" width="260" height="30" as="geometry" />
        </mxCell>
        <mxCell id="IKQh71IgR7tZ8Vpg5hGH-3" value="Enter comma-separated single words to construct the Word Game." style="strokeWidth=1;shadow=0;dashed=0;align=center;html=1;shape=mxgraph.mockup.text.textBox;fontColor=#666666;align=left;fontSize=17;spacingLeft=4;spacingTop=-3;whiteSpace=wrap;strokeColor=#666666;mainText=" vertex="1" parent="2khurb79DYKFhvJ5f-HX-43">
          <mxGeometry x="290" y="140" width="530" height="100" as="geometry" />
        </mxCell>
      </root>
    </mxGraphModel>
  </diagram>
</mxfile>
